# xmcd
#
# Track frame offsets:
#	150
#	9508
#	19813
#	32395
#	36845
#	49355
#	55003
#	68113
#	77690
#	89915
#	93700
#	110315
#	115973
#	128688
#	137150
#	146920
#	159083
#	167265
#	178175
#
# Disc length: 2445 seconds
#
# Revision: 4
# Processed by: cddbd v1.5.2PL0 Copyright (c) Steve Scherf et al.
# Submitted via: audiograbber 1.83.01
#
DISCID=fc098b13
DTITLE=Various Artist - Songs Of The West, Volume 4 - Movie and Television Themes
DYEAR=1993
DGENRE=Country
TTITLE0=Al Caiola - The Magnificent Seven
TTITLE1=Al Caiola and His Orchestra - Bonanza
TTITLE2=Tex Ritter - High Noon (Do Not Forsake Me)
TTITLE3=CBS Orchestra - Gunsmoke
TTITLE4=Hugo Mentenegro - The Good, The Bad And The Ugly
TTITLE5=ABC Orchestra - The Lone Ranger (William Tell Overture)
TTITLE6=Gene Autry - South Of The Border (Down Mexico Way)
TTITLE7=Frankie Laine - Rawhide
TTITLE8=Roy Rogers with Spade Cooley and His Western Swing Band - On The Old Span
TTITLE8=ish Trail
TTITLE9=NBC Orchestra - Wagon Train
TTITLE10=Marty Robbins - Ballad Of The Alamo
TTITLE11=Orchestra and Chorus Conducted by David Buttolph - Maverick
TTITLE12=Roy Rogers - Don't Fence Me In
TTITLE13=Johnny Cash - The Rebel-Johnny Yuma
TTITLE14=Johnny Western - The Ballad Of Paladin
TTITLE15=Hugh O'Brian with Ken Darby;s Orchestra and Chorus - Legend Of Wyatt Ear
TTITLE15=p
TTITLE16=ABC Orchestra conducted by Herschel Burke Gilbert - The Rifleman
TTITLE17=Bill Hayes - The Ballad Of Davey Crockett
TTITLE18=Various Artist - Changing Channels
EXTD=
EXTT0=
EXTT1=
EXTT2=
EXTT3=
EXTT4=
EXTT5=
EXTT6=
EXTT7=
EXTT8=
EXTT9=
EXTT10=
EXTT11=
EXTT12=
EXTT13=
EXTT14=
EXTT15=
EXTT16=
EXTT17=
EXTT18=
PLAYORDER=
